<svg xmlns="http://www.w3.org/2000/svg" viewBox="0 0 766 766">
<path d="M383.0,647.0C381.8,646.5 378.3,646.3 376.0,644.0C373.7,641.7 373.0,643.5 369.0,633.0C365.0,622.5 358.8,597.5 352.0,581.0C345.2,564.5 337.7,549.3 328.0,534.0C318.3,518.7 306.7,503.3 294.0,489.0C281.3,474.7 267.0,460.2 252.0,448.0C237.0,435.8 220.5,425.2 204.0,416.0C187.5,406.8 166.3,398.3 153.0,393.0C139.7,387.7 135.3,386.8 124.0,384.0C112.7,381.2 97.0,377.8 85.0,376.0C73.0,374.2 59.0,372.8 52.0,373.0C45.0,373.2 45.0,373.7 43.0,377.0C41.0,380.3 40.3,383.7 40.0,393.0C39.7,402.3 40.2,421.5 41.0,433.0C41.8,444.5 42.8,451.0 45.0,462.0C47.2,473.0 50.7,487.8 54.0,499.0C57.3,510.2 60.0,517.7 65.0,529.0C70.0,540.3 78.2,556.5 84.0,567.0C89.8,577.5 93.2,582.7 100.0,592.0C106.8,601.3 115.7,612.8 125.0,623.0C134.3,633.2 146.7,644.8 156.0,653.0C165.3,661.2 172.7,666.2 181.0,672.0C189.3,677.8 193.8,681.7 206.0,688.0C218.2,694.3 238.8,704.3 254.0,710.0C269.2,715.7 282.8,719.2 297.0,722.0C311.2,724.8 328.8,726.3 339.0,727.0C349.2,727.7 353.5,727.2 358.0,726.0C362.5,724.8 361.8,721.5 366.0,720.0C370.2,718.5 377.3,717.0 383.0,717.0C388.7,717.0 395.8,718.5 400.0,720.0C404.2,721.5 403.5,724.8 408.0,726.0C412.5,727.2 416.8,727.7 427.0,727.0C437.2,726.3 454.8,724.8 469.0,722.0C483.2,719.2 496.8,715.7 512.0,710.0C527.2,704.3 547.8,694.3 560.0,688.0C572.2,681.7 576.7,677.8 585.0,672.0C593.3,666.2 600.7,661.2 610.0,653.0C619.3,644.8 631.7,633.2 641.0,623.0C650.3,612.8 659.2,601.3 666.0,592.0C672.8,582.7 676.2,577.5 682.0,567.0C687.8,556.5 696.0,540.3 701.0,529.0C706.0,517.7 708.7,510.2 712.0,499.0C715.3,487.8 718.8,473.0 721.0,462.0C723.2,451.0 724.2,444.5 725.0,433.0C725.8,421.5 726.3,402.3 726.0,393.0C725.7,383.7 725.0,380.3 723.0,377.0C721.0,373.7 721.0,373.2 714.0,373.0C707.0,372.8 693.0,374.2 681.0,376.0C669.0,377.8 653.3,381.2 642.0,384.0C630.7,386.8 626.3,387.7 613.0,393.0C599.7,398.3 578.5,406.8 562.0,416.0C545.5,425.2 529.0,435.8 514.0,448.0C499.0,460.2 484.7,474.7 472.0,489.0C459.3,503.3 447.7,518.7 438.0,534.0C428.3,549.3 420.8,564.5 414.0,581.0C407.2,597.5 401.0,622.5 397.0,633.0C393.0,643.5 391.2,642.2 390.0,644.0Z" fill="#8BC34A"/>
<g fill="none" stroke="#6B4423" stroke-width="14" stroke-linecap="round" stroke-linejoin="round">
  <path d="M383.0,647.0C381.8,646.5 378.3,646.3 376.0,644.0C373.7,641.7 373.0,643.5 369.0,633.0C365.0,622.5 358.8,597.5 352.0,581.0C345.2,564.5 337.7,549.3 328.0,534.0C318.3,518.7 306.7,503.3 294.0,489.0C281.3,474.7 267.0,460.2 252.0,448.0C237.0,435.8 220.5,425.2 204.0,416.0C187.5,406.8 166.3,398.3 153.0,393.0C139.7,387.7 135.3,386.8 124.0,384.0C112.7,381.2 97.0,377.8 85.0,376.0C73.0,374.2 59.0,372.8 52.0,373.0C45.0,373.2 45.0,373.7 43.0,377.0C41.0,380.3 40.3,383.7 40.0,393.0C39.7,402.3 40.2,421.5 41.0,433.0C41.8,444.5 42.8,451.0 45.0,462.0C47.2,473.0 50.7,487.8 54.0,499.0C57.3,510.2 60.0,517.7 65.0,529.0C70.0,540.3 78.2,556.5 84.0,567.0C89.8,577.5 93.2,582.7 100.0,592.0C106.8,601.3 115.7,612.8 125.0,623.0C134.3,633.2 146.7,644.8 156.0,653.0C165.3,661.2 172.7,666.2 181.0,672.0C189.3,677.8 193.8,681.7 206.0,688.0C218.2,694.3 238.8,704.3 254.0,710.0C269.2,715.7 282.8,719.2 297.0,722.0C311.2,724.8 328.8,726.3 339.0,727.0C349.2,727.7 353.5,727.2 358.0,726.0C362.5,724.8 361.8,721.5 366.0,720.0C370.2,718.5 380.2,717.5 383.0,717.0"/>
  <path d="M383.0,717.0C385.8,717.5 395.8,718.5 400.0,720.0C404.2,721.5 403.5,724.8 408.0,726.0C412.5,727.2 416.8,727.7 427.0,727.0C437.2,726.3 454.8,724.8 469.0,722.0C483.2,719.2 496.8,715.7 512.0,710.0C527.2,704.3 547.8,694.3 560.0,688.0C572.2,681.7 576.7,677.8 585.0,672.0C593.3,666.2 600.7,661.2 610.0,653.0C619.3,644.8 631.7,633.2 641.0,623.0C650.3,612.8 659.2,601.3 666.0,592.0C672.8,582.7 676.2,577.5 682.0,567.0C687.8,556.5 696.0,540.3 701.0,529.0C706.0,517.7 708.7,510.2 712.0,499.0C715.3,487.8 718.8,473.0 721.0,462.0C723.2,451.0 724.2,444.5 725.0,433.0C725.8,421.5 726.3,402.3 726.0,393.0C725.7,383.7 725.0,380.3 723.0,377.0C721.0,373.7 721.0,373.2 714.0,373.0C707.0,372.8 693.0,374.2 681.0,376.0C669.0,377.8 653.3,381.2 642.0,384.0C630.7,386.8 626.3,387.7 613.0,393.0C599.7,398.3 578.5,406.8 562.0,416.0C545.5,425.2 529.0,435.8 514.0,448.0C499.0,460.2 484.7,474.7 472.0,489.0C459.3,503.3 447.7,518.7 438.0,534.0C428.3,549.3 420.8,564.5 414.0,581.0C407.2,597.5 401.0,622.5 397.0,633.0C393.0,643.5 392.3,641.7 390.0,644.0C387.7,646.3 384.2,646.5 383.0,647.0"/>
  <path d="M132.0,485.0C164.3,516.0 286.5,632.7 326.0,671.0C365.5,709.3 361.8,707.7 369.0,715.0"/>
  <path d="M634.0,485.0C601.7,516.0 479.5,632.7 440.0,671.0C400.5,709.3 404.2,707.7 397.0,715.0"/>
  <path d="M593.0,144.0C586.7,139.5 570.5,125.8 555.0,117.0C539.5,108.2 516.7,97.5 500.0,91.0C483.3,84.5 468.8,81.2 455.0,78.0C441.2,74.8 429.8,73.3 417.0,72.0C404.2,70.7 393.8,69.5 378.0,70.0C362.2,70.5 338.2,72.5 322.0,75.0C305.8,77.5 295.5,80.3 281.0,85.0C266.5,89.7 250.7,95.5 235.0,103.0C219.3,110.5 199.5,122.0 187.0,130.0C174.5,138.0 170.2,142.0 160.0,151.0C149.8,160.0 136.5,172.3 126.0,184.0C115.5,195.7 105.0,209.5 97.0,221.0C89.0,232.5 83.5,242.8 78.0,253.0C72.5,263.2 68.7,270.3 64.0,282.0C59.3,293.7 52.3,316.2 50.0,323.0"/>
  <path d="M594.0,146.0C587.5,145.7 580.7,142.7 555.0,144.0C529.3,145.3 465.8,151.0 440.0,154.0C414.2,157.0 415.0,157.5 400.0,162.0C385.0,166.5 365.3,173.8 350.0,181.0C334.7,188.2 323.8,193.7 308.0,205.0C292.2,216.3 267.3,237.7 255.0,249.0C242.7,260.3 240.0,265.0 234.0,273.0C228.0,281.0 222.2,290.2 219.0,297.0C215.8,303.8 215.3,309.3 215.0,314.0C214.7,318.7 214.5,321.2 217.0,325.0C219.5,328.8 225.8,334.8 230.0,337.0C234.2,339.2 235.5,339.7 242.0,338.0C248.5,336.3 253.3,337.2 269.0,327.0C284.7,316.8 320.7,287.5 336.0,277.0C351.3,266.5 352.0,267.7 361.0,264.0C370.0,260.3 385.2,256.5 390.0,255.0"/>
  <path d="M205.0,162.0C198.7,167.8 178.2,185.5 167.0,197.0C155.8,208.5 146.7,219.2 138.0,231.0C129.3,242.8 122.5,252.7 115.0,268.0C107.5,283.3 96.7,313.8 93.0,323.0"/>
  <path d="M234.0,194.0C228.2,199.5 210.0,215.0 199.0,227.0C188.0,239.0 176.8,252.7 168.0,266.0C159.2,279.3 151.2,295.8 146.0,307.0C140.8,318.2 138.5,328.7 137.0,333.0"/>
  <path d="M552.0,218.0C547.8,220.8 538.2,230.0 527.0,235.0C515.8,240.0 507.2,244.7 485.0,248.0C462.8,251.3 409.2,253.8 394.0,255.0"/>
  <path d="M392.0,257.0C392.0,262.2 390.3,280.0 392.0,288.0C393.7,296.0 396.7,300.2 402.0,305.0C407.3,309.8 415.5,314.3 424.0,317.0C432.5,319.7 429.2,320.3 453.0,321.0C476.8,321.7 543.2,321.5 567.0,321.0C590.8,320.5 585.2,320.0 596.0,318.0C606.8,316.0 618.3,314.3 632.0,309.0C645.7,303.7 667.8,292.0 678.0,286.0C688.2,280.0 690.5,275.2 693.0,273.0"/>
  <path d="M695.0,274.0C698.2,282.8 710.8,318.2 714.0,327.0"/>
</g>
</svg>